#FILENAME=6b0e270a
# xmcd CD database file
# Copyright (C) 1995-1998 Ti Kan
#
# Track frame offsets:
#	183
#	38250
#	71833
#	93753
#	121023
#	134345
#	157985
#	183073
#	227618
#	257470
#
# Disc length: 3625 seconds
#
# Revision: 34560204
# Submitted via:  Kscd 1.2.7
#
DISCID=6b0e270a
DTITLE=Michael Kamen / Robin Hood, Prince of Thieves Soundtrack
TTITLE0=Overture and a Prisoner of the Crusades (From Chains to Freedom)
TTITLE1=Sir Guy of Gisborne and the Escape to Sherwood
TTITLE2=Little John and the Band in the Forest
TTITLE3=The Sheriff and his Witch
TTITLE4=Maid Marian
TTITLE5=Training - Robin Hood, Prince of Thieves
TTITLE6=Marian at the Waterfall
TTITLE7=The Abduction and the Final Battle at the Gallows
TTITLE8=(Everything I do) I do It For You
TTITLE9=Wild Times
EXTD=oundtrack -- Morgan Creek2959-2004-2 -- Robin Hood  Prince of Thieves -
EXTD=- Original Motion Picture S\nYEAR: 1999  ID3G:  24
EXTT0=
EXTT1=
EXTT2=
EXTT3=
EXTT4=
EXTT5=
EXTT6=
EXTT7=
EXTT8=
EXTT9=
PLAYORDER=
